<?xml version="1.0" standalone="no"?>
<!DOCTYPE svg PUBLIC "-//W3C//DTD SVG 20010904//EN"
 "http://www.w3.org/TR/2001/REC-SVG-20010904/DTD/svg10.dtd">
<svg version="1.0" xmlns="http://www.w3.org/2000/svg"
 width="802.000000pt" height="802.000000pt" viewBox="0 0 802.000000 802.000000"
 preserveAspectRatio="xMidYMid meet">
<metadata>
Created by potrace 1.11, written by Peter Selinger 2001-2013
</metadata>
<g transform="translate(0.000000,802.000000) scale(0.100000,-0.100000)"
fill="#000000" stroke="none">
<path d="M3845 8014 c-355 -36 -549 -80 -817 -185 -184 -73 -526 -245 -649
-327 -122 -82 -275 -222 -339 -312 -25 -35 -83 -108 -128 -164 -382 -462 -599
-950 -695 -1556 -18 -116 -21 -178 -21 -445 0 -286 2 -323 26 -480 24 -154 81
-402 107 -465 l10 -25 0 27 c1 14 6 95 11 180 46 676 208 1289 486 1839 124
244 114 232 148 176 168 -289 578 -555 1071 -697 443 -128 1004 -164 1485 -94
572 83 1047 290 1341 583 58 59 127 139 154 180 l48 73 44 -78 c302 -541 494
-1200 553 -1899 5 -66 10 -160 10 -210 1 -111 8 -101 54 76 75 284 100 496
100 819 0 271 -11 390 -59 625 -97 483 -313 944 -614 1310 -49 61 -116 146
-147 190 -105 147 -265 288 -459 406 -122 74 -515 255 -665 307 -285 97 -527
140 -825 146 -104 2 -208 2 -230 0z"/>
<path d="M2875 4794 c-226 -50 -525 -207 -525 -276 0 -26 34 -24 200 12 252
53 312 61 595 75 389 20 575 54 575 107 0 27 -65 54 -181 74 -139 24 -569 29
-664 8z"/>
<path d="M4570 4795 c-188 -23 -283 -60 -251 -99 37 -44 212 -73 569 -91 298
-15 313 -17 571 -70 179 -37 216 -41 225 -26 11 17 -6 40 -61 82 -120 90 -312
173 -473 203 -101 20 -425 20 -580 1z"/>
<path d="M2890 4244 c-78 -34 -122 -105 -123 -199 -2 -190 189 -291 314 -166
110 109 75 308 -63 366 -46 19 -83 19 -128 -1z"/>
<path d="M4740 4238 c-122 -66 -147 -254 -46 -354 95 -96 230 -73 291 50 91
182 -79 392 -245 304z"/>
<path d="M3735 2553 c-159 -22 -398 -81 -580 -143 -214 -74 -395 -172 -395
-215 0 -110 648 -1 1050 175 84 37 200 107 200 121 0 5 21 -8 48 -28 170 -131
716 -296 1027 -309 144 -7 185 1 185 37 0 74 -293 206 -656 297 -224 56 -350
74 -475 68 -120 -5 -100 -5 -254 -1 -66 1 -133 1 -150 -2z"/>
<path d="M3900 980 l0 -130 115 0 115 0 0 130 0 130 -115 0 -115 0 0 -130z"/>
<path d="M2780 551 c0 -45 27 -110 70 -167 133 -177 492 -323 895 -364 174
-18 538 -8 690 19 227 40 432 109 572 193 132 78 233 202 249 306 l7 42 -1242
0 -1241 0 0 -29z"/>
</g>
</svg>
