<svg xmlns="http://www.w3.org/2000/svg" viewBox="0 0 55.03 55.03"><defs><style>.cls-1{fill:#962828;}.cls-2{fill:#fff;}</style></defs><title>artstation</title><g id="Layer_2" data-name="Layer 2"><g id="icons"><path class="cls-1" d="M27.51,55h0A27.52,27.52,0,0,1,0,27.51H0A27.51,27.51,0,0,1,27.51,0h0A27.52,27.52,0,0,1,55,27.51h0A27.52,27.52,0,0,1,27.51,55Z"/><path class="cls-2" d="M8.22,34.73l3.27,5.64A3.89,3.89,0,0,0,15,42.52H36.64l-4.49-7.79Zm38-2.08L33.55,10.58a3.88,3.88,0,0,0-3.44-2.07H23.39l19.54,34L46,37.14a4,4,0,0,0,.15-4.49ZM29,29.2,20.18,14,11.41,29.2Z"/></g></g></svg>