<svg xmlns="http://www.w3.org/2000/svg" viewBox="0 0 55.03 55.03"><defs><style>.cls-1{fill:#962828;}.cls-2{fill:#fff;}</style></defs><title>behance</title><g id="Layer_2" data-name="Layer 2"><g id="backgroud"><path class="cls-1" d="M27.51,55h0A27.52,27.52,0,0,1,0,27.51H0A27.51,27.51,0,0,1,27.51,0h0A27.52,27.52,0,0,1,55,27.51h0A27.52,27.52,0,0,1,27.51,55Z"/><path class="cls-2" d="M23.1,37.87a5.5,5.5,0,0,0,2.34-1.09,6.13,6.13,0,0,0,1.47-1.72,6.71,6.71,0,0,0,.92-3.49,6,6,0,0,0-.81-3.2,4.62,4.62,0,0,0-2.39-1.93,5.08,5.08,0,0,0,1.58-1.25,5,5,0,0,0,1-3.22,5.8,5.8,0,0,0-1-3.33c-1.06-1.51-2.84-2.29-5.37-2.33h-10V38.17h9.33A13.52,13.52,0,0,0,23.1,37.87ZM15,20.11h4.51a7.38,7.38,0,0,1,2.45.34,2,2,0,0,1,1.11,2,2.13,2.13,0,0,1-.84,1.93,4,4,0,0,1-2.19.54H15Zm0,14.26V28.55h5.1a4.94,4.94,0,0,1,2.07.37,2.35,2.35,0,0,1,1.32,2.34A2.81,2.81,0,0,1,22.1,34a4.64,4.64,0,0,1-2.1.38Z"/><path class="cls-2" d="M31.33,36.73a8.07,8.07,0,0,0,5.4,2,7.24,7.24,0,0,0,5.76-2.36A5.33,5.33,0,0,0,44,33.44H39.89a3.66,3.66,0,0,1-.83,1.11,3.24,3.24,0,0,1-2.22.74,3.63,3.63,0,0,1-3.81-4H44.18a21.41,21.41,0,0,0-.13-3.2,8.1,8.1,0,0,0-1.22-3.35,6.32,6.32,0,0,0-2.65-2.39,8.34,8.34,0,0,0-3.6-.75,7.14,7.14,0,0,0-5.47,2.24Q29,26.06,29,30.26C29,33.25,29.78,35.4,31.33,36.73ZM34.2,26a3.08,3.08,0,0,1,2.38-.92,3.41,3.41,0,0,1,2.38.87A3.64,3.64,0,0,1,40,28.49h-6.9A4.46,4.46,0,0,1,34.2,26Z"/><rect class="cls-2" x="31.82" y="17.57" width="9" height="2.21"/></g></g></svg>