<svg xmlns="http://www.w3.org/2000/svg" viewBox="0 0 50 40.62"><defs><style>.cls-1{fill:#962828;}</style></defs><title>blender</title><g id="Layer_2" data-name="Layer 2"><g id="icons"><path class="cls-1" d="M26.07,22.84a5.89,5.89,0,0,1,2.14-4.18h0A7.06,7.06,0,0,1,32.81,17h0a7.09,7.09,0,0,1,4.61,1.65h0a5.94,5.94,0,0,1,2.15,4.18,5.81,5.81,0,0,1-1.81,4.48h0a7,7,0,0,1-4.94,1.95h0a7.05,7.05,0,0,1-4.95-1.95h0A5.76,5.76,0,0,1,26.07,22.84Z"/><path class="cls-1" d="M15.31,26.21a13,13,0,0,0,.54,2.91h0a15.41,15.41,0,0,0,3.31,5.74h0A17.1,17.1,0,0,0,25,39h0a18.78,18.78,0,0,0,7.62,1.59h0A18.85,18.85,0,0,0,40.22,39h0A17.48,17.48,0,0,0,46,34.82h0a15.35,15.35,0,0,0,3.31-5.76h0A15,15,0,0,0,50,25.85h0a14.82,14.82,0,0,0-.11-3.19h0a14.82,14.82,0,0,0-2.11-5.79,16.08,16.08,0,0,0-3.86-4.25h0L28.26.62h0l0,0h0a3.45,3.45,0,0,0-3.87,0h0a1.76,1.76,0,0,0-.26,3h0l6.51,5.3-19.86,0h0A3.62,3.62,0,0,0,7.19,11.3h0c-.32,1.39.79,2.54,2.5,2.54h0l10.06,0-18,13.79h0l-.07.05h0C0,29-.52,31.12.55,32.49h0c1.08,1.39,3.38,1.39,5.09,0h0l9.81-8A15.11,15.11,0,0,0,15.31,26.21ZM40.5,29.83a11,11,0,0,1-7.91,3.23h0a11,11,0,0,1-7.91-3.2h0a9.51,9.51,0,0,1-2.16-3.38h0A9,9,0,0,1,22,22.7h0a9,9,0,0,1,1.08-3.55h0a9.87,9.87,0,0,1,2.4-2.86h0a11.27,11.27,0,0,1,7.08-2.47h0a11.21,11.21,0,0,1,7.08,2.45h0a9.84,9.84,0,0,1,2.4,2.85h0a9.13,9.13,0,0,1,1.09,3.55h0a8.82,8.82,0,0,1-.5,3.78h0A9.37,9.37,0,0,1,40.5,29.83Z"/></g></g></svg>