<svg xmlns="http://www.w3.org/2000/svg" viewBox="0 0 42.52 52.66"><defs><style>.cls-1{fill:#600e0b;}.cls-2{fill:#972929;}.cls-3{fill:#046b6b;}</style></defs><title>dsmax</title><g id="Layer_2" data-name="Layer 2"><g id="ttac"><path class="cls-1" d="M18.06,17.23l-.08,0V10.59l.08-.06,0,0L42.52,26.32,18.05,17.24Zm0,18.2h0l24.47-9.08L18.08,42.17l0,0H18V35.45Z"/><path class="cls-2" d="M29.32,0l13.2,26.32L18.08,10.49l0,0v0L29.24.07Zm13.2,26.34L29.32,52.66l-.07-.07L18.06,42.21h0l0,0Z"/><path class="cls-2" d="M18.05,10.47l0,0,0,0H.16L0,10.47,4.47.06H29.24L18.06,10.45Zm0,.06-.08.06v-.06Zm0,31.61,0,0,0,0h0L29.25,52.59H4.47L0,42.2l.15-.06H17.9l.08.07v-.07Z"/><path class="cls-2" d="M18.05,17.24l24.47,9.08v0L18.05,35.42h0l-.08,0V17.21l.08,0Z"/><path class="cls-3" d="M18,42.14v.07l-.08-.07Z"/><path class="cls-1" d="M18,35.45v6.69H17.9l-5.09-4.75Z"/><path class="cls-2" d="M18,35.43v0l-5.17,1.94-11.73-11v0l11.73-11L18,17.21V35.43Z"/><path class="cls-1" d="M18,10.59v6.62l-5.17-1.94Z"/><path class="cls-1" d="M18,10.53v.06l-5.17,4.68L.16,10.53ZM17.9,42.14H.15l12.66-4.75Z"/></g></g></svg>