<svg xmlns="http://www.w3.org/2000/svg" viewBox="0 0 55.03 55.03"><defs><style>.cls-1{fill:#962828;}.cls-2{fill:#fff;}</style></defs><title>email</title><g id="Layer_2" data-name="Layer 2"><g id="nao_mexe" data-name="nao mexe"><circle class="cls-1" cx="27.51" cy="27.51" r="27.51" transform="translate(-8.44 42.41) rotate(-67.5)"/><rect class="cls-2" x="10.17" y="15.81" width="34.69" height="23.41"/><path class="cls-1" d="M44.86,40.08H10.17a.86.86,0,0,1-.86-.86V15.81a.85.85,0,0,1,.86-.86H44.86a.85.85,0,0,1,.86.86V39.22A.86.86,0,0,1,44.86,40.08ZM11,38.36H44V16.67H11Z"/><path class="cls-1" d="M27.51,30.83a4.79,4.79,0,0,1-3.19-1.22L9.6,16.45a.86.86,0,0,1,.57-1.5H44.86a.86.86,0,0,1,.57,1.5L30.71,29.61h0A4.8,4.8,0,0,1,27.51,30.83ZM12.42,16.67l13,11.66a3.1,3.1,0,0,0,4.11,0l13-11.66ZM30.14,29h0Z"/><path class="cls-1" d="M44.86,39.92H10.17a.86.86,0,0,1-.57-1.5L22.52,26.88a.86.86,0,0,1,1.21.06.88.88,0,0,1-.07,1.22l-11.24,10H42.61l-11.24-10a.88.88,0,0,1-.07-1.22.86.86,0,0,1,1.21-.06L45.43,38.42a.86.86,0,0,1-.57,1.5Z"/></g></g></svg>