<svg xmlns="http://www.w3.org/2000/svg" viewBox="0 0 42.52 59.53"><defs><style>.cls-1{fill:#972929;}.cls-2{fill:#600e0b;}</style></defs><title>flstudio</title><g id="Layer_2" data-name="Layer 2"><g id="ttac"><path class="cls-1" d="M9.07,11.87S0,21.63,0,38.86C0,53.32,5.68,59.53,10.88,59.53c2.42,0,10.28-1.72,18.14-14.93,9.08-15.26,7.85-22.39,7.85-22.39Z"/><path class="cls-2" d="M31.11,10.21a15.5,15.5,0,0,0-6.22,1c-2.44-4.7-4.33-7-10.43-7C3.48,4.25,0,12.29,0,14.64c0,.82,1.53,1.53,5.19,1.53a47.93,47.93,0,0,0,8.29-1,10.61,10.61,0,0,0-1,5c0,5,3.11,8.93,7.26,8.93,6.22,0,9.33-6.95,9.33-6.95s7.26,8,9.82,8,3.66-3.52,3.66-8.22C42.52,18.34,39.65,10.21,31.11,10.21Z"/><path class="cls-2" d="M24.09,13.81a1.46,1.46,0,0,1-.57-.12,1.42,1.42,0,0,1-.72-1.87C23.94,9.22,27.94,2.94,32,.24A1.42,1.42,0,1,1,33.57,2.6C30,5,26.26,11,25.39,13A1.42,1.42,0,0,1,24.09,13.81Z"/><path class="cls-1" d="M5.67,42.52a1.42,1.42,0,0,1-1.41-1.26A33.58,33.58,0,0,1,5.73,27.94a1.42,1.42,0,1,1,2.71.82A30.75,30.75,0,0,0,7.08,41a1.42,1.42,0,0,1-1.26,1.56Z"/></g></g></svg>