<svg xmlns="http://www.w3.org/2000/svg" viewBox="0 0 42.52 41.46"><defs><style>.cls-1{fill:#fff;}.cls-2{fill:#972929;}</style></defs><title>Asset 3</title><g id="Layer_2" data-name="Layer 2"><g id="vimperio"><path class="cls-1" d="M1.77,1.77h39V39.69h-39Z"/><path class="cls-2" d="M1.77,1.77h39V39.69h-39ZM0,41.46H42.52V0H0ZM27.85,14.78c0-.15,0-.22.21-.22h2.78c.15,0,.22.06.22.22v14c0,.15,0,.22-.22.22H28.1c-.18,0-.23-.09-.23-.23v-14Zm-.19-4a1.81,1.81,0,0,1,3.61,0,1.69,1.69,0,0,1-1.84,1.81A1.66,1.66,0,0,1,27.66,10.75Zm-8,9.85c-.49-2-1.66-6.25-2.11-8.32h0c-.37,2.07-1.31,5.58-2.06,8.32Zm-4.92,2.87-1.4,5.32c0,.14-.09.18-.27.18h-2.6c-.18,0-.21-.06-.18-.27l5-17.61a5.83,5.83,0,0,0,.18-1.47c0-.12.05-.18.14-.18h3.72c.13,0,.18,0,.21.18l5.64,19.12c0,.14,0,.23-.14.23H22.15c-.15,0-.23,0-.27-.16l-1.45-5.34Z"/></g></g></svg>