<svg xmlns="http://www.w3.org/2000/svg" viewBox="0 0 55.03 55.03"><defs><style>.cls-1{fill:#962828;}.cls-2{fill:#fff;}</style></defs><title>instagram</title><g id="Layer_2" data-name="Layer 2"><g id="icons"><circle class="cls-1" cx="27.52" cy="27.52" r="27.52"/><path class="cls-2" d="M27.52,18.63a8.89,8.89,0,1,0,8.89,8.88A8.87,8.87,0,0,0,27.52,18.63Zm0,14.66a5.78,5.78,0,1,1,5.78-5.77,5.79,5.79,0,0,1-5.78,5.77Zm11.32-15a2.07,2.07,0,1,1-2.07-2.07A2.08,2.08,0,0,1,38.84,18.26Zm5.89,2.11c-.13-2.78-.77-5.24-2.8-7.27a10.37,10.37,0,0,0-7.26-2.8c-2.87-.16-11.44-.16-14.31,0a10.35,10.35,0,0,0-7.26,2.79c-2,2-2.66,4.49-2.8,7.27s-.16,11.44,0,14.3.77,5.24,2.8,7.27a10.39,10.39,0,0,0,7.26,2.8c2.87.16,11.44.16,14.31,0a10.28,10.28,0,0,0,7.26-2.8c2-2,2.66-4.49,2.8-7.27s.16-11.43,0-14.29ZM41,37.73A5.84,5.84,0,0,1,37.74,41c-2.29.91-7.7.7-10.22.7s-7.94.2-10.22-.7A5.84,5.84,0,0,1,14,37.73c-.91-2.28-.7-7.69-.7-10.22s-.2-7.94.7-10.21A5.84,5.84,0,0,1,17.3,14c2.28-.91,7.7-.7,10.22-.7s7.94-.2,10.22.7A5.84,5.84,0,0,1,41,17.3c.91,2.28.7,7.69.7,10.21S41.94,35.46,41,37.73Z"/></g></g></svg>