<svg xmlns="http://www.w3.org/2000/svg" viewBox="0 0 25 25"><defs><style>.cls-1{fill:#962828;}.cls-2{fill:#fff;}</style></defs><title>itch</title><g id="Layer_2" data-name="Layer 2"><g id="icons"><path class="cls-1" d="M12.5,25h0A12.5,12.5,0,0,1,0,12.5H0A12.5,12.5,0,0,1,12.5,0h0A12.5,12.5,0,0,1,25,12.5h0A12.5,12.5,0,0,1,12.5,25Z"/><path class="cls-2" d="M6.78,5.62A6.29,6.29,0,0,0,4.76,8v.67a1.65,1.65,0,0,0,1.5,1.58A1.58,1.58,0,0,0,7.83,8.64,1.56,1.56,0,0,0,9.38,10.2,1.53,1.53,0,0,0,10.9,8.64a1.6,1.6,0,0,0,1.59,1.56h0A1.6,1.6,0,0,0,14.1,8.64a1.54,1.54,0,0,0,1.52,1.56,1.56,1.56,0,0,0,1.55-1.56,1.58,1.58,0,0,0,1.57,1.56,1.65,1.65,0,0,0,1.5-1.58V8a6.29,6.29,0,0,0-2-2.33c-2.1-.07-3.55-.08-5.72-.08s-5.12,0-5.72.08ZM10.89,9.8a1.85,1.85,0,0,1-.3.39,1.79,1.79,0,0,1-1.26.51,1.81,1.81,0,0,1-1.25-.51,1.74,1.74,0,0,1-.29-.38h0a2.24,2.24,0,0,1-.31.38,1.8,1.8,0,0,1-1.26.51.86.86,0,0,1-.17,0c-.07.72-.1,1.4-.11,1.9h0v.76c0,1.5-.15,4.88.66,5.71a31.51,31.51,0,0,0,5.9.42h0A31.37,31.37,0,0,0,18.4,19c.82-.83.66-4.21.67-5.71,0-.29,0-.5,0-.75h0c0-.5,0-1.18-.1-1.9a.47.47,0,0,1-.17,0,1.79,1.79,0,0,1-1.26-.51,1.61,1.61,0,0,1-.31-.38h0a2.24,2.24,0,0,1-.29.38,1.81,1.81,0,0,1-2.52,0,1.85,1.85,0,0,1-.3-.39,1.85,1.85,0,0,1-.3.39,1.79,1.79,0,0,1-1.26.51h-.1a1.79,1.79,0,0,1-1.26-.51,1.93,1.93,0,0,1-.3-.39ZM9.6,11.47h0a1.72,1.72,0,0,1,1.53.62A12.32,12.32,0,0,1,12.5,12h0a12.19,12.19,0,0,1,1.37.07,1.72,1.72,0,0,1,1.53-.62h0c.25,0,1.21,0,1.89,1.89L18,16c.54,1.93-.17,2-1.05,2a2,2,0,0,1-2-2,15.27,15.27,0,0,1-2.42.18h0A15.37,15.37,0,0,1,10.08,16a2,2,0,0,1-2,2c-.88,0-1.59-.05-1.06-2l.73-2.59c.67-1.9,1.64-1.9,1.88-1.9ZM12.5,13h0a14.28,14.28,0,0,0-1.63,1.72l.91,0v.79a3,3,0,0,0,.72,0h0a3.08,3.08,0,0,0,.73,0v-.79l.9,0A14.28,14.28,0,0,0,12.5,13Z"/></g></g></svg>