<svg xmlns="http://www.w3.org/2000/svg" viewBox="0 0 55.03 55.03"><defs><style>.cls-1{fill:#962828;}.cls-2{fill:#fff;}</style></defs><title>linkedin</title><g id="Layer_2" data-name="Layer 2"><g id="backgroud"><path class="cls-1" d="M27.51,55h0A27.52,27.52,0,0,1,0,27.51H0A27.51,27.51,0,0,1,27.51,0h0A27.52,27.52,0,0,1,55,27.51h0A27.52,27.52,0,0,1,27.51,55Z"/><rect class="cls-2" x="15.04" y="21.38" width="5.69" height="18.4"/><path class="cls-2" d="M17.86,19a3.4,3.4,0,1,0-3.37-3.39A3.38,3.38,0,0,0,17.86,19Z"/><path class="cls-2" d="M29.84,30.12C29.84,27.53,31,26,33.31,26c2.09,0,3.1,1.48,3.1,4.13v9.66h5.66V28.13c0-4.93-2.79-7.31-6.69-7.31a6.41,6.41,0,0,0-5.54,3V21.38H24.37v18.4h5.47Z"/></g></g></svg>