<svg xmlns="http://www.w3.org/2000/svg" viewBox="0 0 42.52 41.46"><defs><style>.cls-1{fill:#fff;}.cls-2{fill:#972929;}</style></defs><title>Asset 4</title><g id="Layer_2" data-name="Layer 2"><g id="vimperio"><path class="cls-1" d="M1.77,1.77h39V39.69h-39Z"/><path class="cls-2" d="M1.77,1.77h39V39.69h-39ZM0,41.46H42.52V0H0ZM28.67,17c-1.4,0-1.88.71-1.88,1.29s.32,1.08,2.19,2.06c2.79,1.34,3.65,2.64,3.65,4.53,0,2.84-2.16,4.36-5.08,4.36a7.74,7.74,0,0,1-3.63-.76c-.13,0-.14-.14-.14-.29V25.6c0-.18.08-.23.21-.14a6.52,6.52,0,0,0,3.56,1c1.4,0,2-.58,2-1.38,0-.64-.4-1.2-2.19-2.12-2.52-1.21-3.56-2.43-3.56-4.47,0-2.28,1.79-4.18,4.89-4.18a8.07,8.07,0,0,1,3.17.5.39.39,0,0,1,.17.35v2.43c0,.14-.08.23-.26.18a5.94,5.94,0,0,0-3.08-.8ZM13.43,19.12c.41,0,.73,0,1.43,0,2.08,0,4-.72,4-3.54,0-2.25-1.4-3.39-3.76-3.39-.71,0-1.38,0-1.7.06ZM10.28,9.71c0-.13.24-.21.39-.21,1.13-.06,2.81-.09,4.57-.09,4.9,0,6.82,2.69,6.82,6.13C22.06,20,18.8,22,14.79,22c-.67,0-.9,0-1.38,0v6.81c0,.14-.05.21-.21.21H10.49c-.14,0-.21-.05-.21-.21v-19Z"/></g></g></svg>