<svg xmlns="http://www.w3.org/2000/svg" viewBox="0 0 42.52 41.46"><defs><style>.cls-1{fill:#fff;}.cls-2{fill:#972929;}</style></defs><title>Asset 1</title><g id="Layer_2" data-name="Layer 2"><g id="vimperio"><path class="cls-1" d="M1.77,1.77h39V39.69h-39Z"/><path class="cls-2" d="M1.77,1.77h39V39.69h-39ZM0,41.46H42.52V0H0Zm25.51-24c0-.21,0-.72-.09-1.71,0-.15,0-.18.14-.23a18.29,18.29,0,0,1,6.49-1.23c.14,0,.21,0,.21.18v2.57c0,.14,0,.18-.19.18a9.91,9.91,0,0,0-3.35.35V28.77c0,.14,0,.21-.21.21H25.72c-.14,0-.21-.05-.21-.21V17.5ZM14.17,19.12c.41,0,.73,0,1.44,0,2.07,0,4-.72,4-3.54,0-2.25-1.38-3.39-3.76-3.39-.7,0-1.38,0-1.7.06v6.84ZM11,9.71c0-.13,0-.21.17-.21,1.14-.06,2.8-.09,4.56-.09,4.91,0,7.05,2.69,7.05,6.15,0,4.5-3.26,6.43-7.26,6.43-.68,0-.91,0-1.39,0v6.8c0,.15-.05.22-.21.22H11.23c-.14,0-.21-.06-.21-.22v-19Z"/></g></g></svg>